<?xml version="1.0" standalone="no"?>
<!DOCTYPE svg PUBLIC "-//W3C//DTD SVG 20010904//EN"
 "http://www.w3.org/TR/2001/REC-SVG-20010904/DTD/svg10.dtd">
<svg version="1.0" xmlns="http://www.w3.org/2000/svg"
 width="202.000000pt" height="249.000000pt" viewBox="0 0 202.000000 249.000000"
 preserveAspectRatio="xMidYMid meet">

<g transform="translate(0.000000,249.000000) scale(0.100000,-0.100000)"
fill="#000000" stroke="none">
<path d="M1333 2387 l-162 -92 -1 -570 -1 -570 -158 -91 -159 -91 -7 378 -8
378 -157 90 c-87 50 -162 91 -167 91 -4 0 -80 -42 -168 -93 l-160 -93 0 -759
0 -759 160 -93 c88 -51 164 -93 169 -93 4 0 303 170 662 377 l654 378 -2 759
-3 759 -160 93 c-88 51 -162 93 -165 93 -3 1 -78 -41 -167 -92z"/>
</g>
</svg>
